Wyatt Earp 1994 BluRay 1080p DTS dxva-LoNeWolf

Movie has been tested and is DXVA Compliant




General Information:

RUNTIME........: 3h 10mn
SIZE...........: 14.7 GiB
VIDEO CODEC....: x264 (L4.1)
RESOLUTION.....: 1920x800
BITRATE........: Overall bit rate : 11.1 Mbps 
FRAMERATE......: 23.976 fps
AUDIO 1........: English DTS 6 Channels 1510 Kbps
SUBTITLES......: English , Spanish , French 
CHAPTERS.......: YES
SOURCE.........: NTSC Blu-ray 
ENCODED DATE...: UTC 2011-03-05 16:06:54 
Encoder........: TequilaBob a.k.a. LoNeWoLf
GENRE..........: Action, Adventure, Biograph, Romance, Western  
RATING.........: 6.4/10 X  Users: 6.4/10 (16,334 votes) 112 reviews | Critics: 37 reviews Metascore: 47/100 
Release Date...: 24 June 1994 (USA)
Rated..........: Rated PG-13 
IMDB link......:    http://www.imdb.com/title/tt0111756/


[img]http://torrent-stats.info/a4b6/c977c176.png[/img]

 

Storyline
Wyatt Earp is a movie about a man and his family. The movie shows us the good times and the bad times of one of the West's most famous individuals. Written by Jimmy Anderson <jimmy@wnm.net>

Director: Lawrence Kasdan
Writers: Dan Gordon, Lawrence Kasdan
Stars:Kevin Costner, Dennis Quaid, Gene Hackman  

Plot Keywords:Wyatt Earp | Cemetery | Ore Mine | Wichita Kansas | Outlaw


Cast
Cast overview, first billed only: 
  Kevin Costner  ...  Wyatt Earp  
  Dennis Quaid  ...  Doc Holliday  
  Gene Hackman  ...  Nicholas Earp  
  David Andrews  ...  James Earp  
  Linden Ashby  ...  Morgan Earp  
  Jeff Fahey  ...  Ike Clanton  
  Joanna Going  ...  Josie Marcus  
  Mark Harmon  ...  Sheriff Johnny Behan  
  Michael Madsen  ...  Virgil Earp  
  Catherine O'Hara  ...  Allie Earp  
  Bill Pullman  ...  Ed Masterson  
  Isabella Rossellini  ...  Big Nose Kate  
  Tom Sizemore  ...  Bat Masterson  
  JoBeth Williams  ...  Bessie Earp  
  Mare Winningham  ...  Mattie Blaylock 



Format : Matroska 
File size : 14.7 GiB 
Duration : 3h 10mn 
Overall bit rate : 11.1 Mbps 
Encoded date : UTC 2011-03-05 16:06:54 
Writing application : mkvmerge v4.4.0 ('Die Wiederkehr') built on Oct 31 2010 21:52:48 
Writing library : libebml v1.0.0 + libmatroska v1.0.0 

Video 
ID : 1 
Format : AVC 
Format/Info : Advanced Video Codec 
Format profile : High@L4.1 
Format settings, CABAC : Yes 
Format settings, ReFrames : 4 frames 
Muxing mode : Container profile=Unknown@4.1 
Codec ID : V_MPEG4/ISO/AVC 
Duration : 3h 10mn 
Bit rate : 9 499 Kbps 
Width : 1 920 pixels 
Height : 800 pixels 
Display aspect ratio : 2.40:1 
Frame rate : 23.976 fps 
Color space : YUV 
Chroma subsampling : 4:2:0 
Bit depth : 8 bits 
Scan type : Progressive 
Bits/(Pixel*Frame) : 0.258 
Stream size : 12.4 GiB (84%) 
Writing library : x264 core 112 r1867 22bfd31 
Encoding settings : cabac=1 / ref=5 / deblock=1:-3:-3 / analyse=0x3:0x113 / me=umh / subme=9 / psy=1 / psy_rd=1.00:0.08 / mixed_ref=1 / me_range=32 / chroma_me=1 / trellis=2 / 8x8dct=1 / cqm=0 / deadzone=21,11 / fast_pskip=0 / chroma_qp_offset=-3 / threads=6 / sliced_threads=0 / nr=0 / decimate=0 / interlaced=0 / constrained_intra=0 / bframes=6 / b_pyramid=1 / b_adapt=1 / b_bias=0 / direct=1 / weightb=1 / open_gop=2 / weightp=2 / keyint=250 / keyint_min=23 / scenecut=50 / intra_refresh=0 / rc_lookahead=100 / rc=2pass / mbtree=1 / bitrate=9499 / ratetol=1.0 / qcomp=0.60 / qpmin=10 / qpmax=51 / qpstep=4 / cplxblur=20.0 / qblur=0.5 / vbv_maxrate=50000 / vbv_bufsize=50000 / nal_hrd=none / ip_ratio=1.40 / aq=1:1.50 
Language : English 

Audio 
ID : 2 
Format : DTS 
Format/Info : Digital Theater Systems 
Codec ID : A_DTS 
Duration : 3h 10mn 
Bit rate mode : Constant 
Bit rate : 1 510 Kbps 
Channel(s) : 6 channels 
Channel positions : Front: L C R, Side: L R, LFE 
Sampling rate : 48.0 KHz 
Bit depth : 24 bits 
Stream size : 2.01 GiB (14%) 

Text #1 
ID : 3 
Format : PGS 
Codec ID : S_HDMV/PGS 
Codec ID/Info : The same subtitle format used on BDs/HD-DVDs 
Language : English 

Text #2 
ID : 4 
Format : PGS 
Codec ID : S_HDMV/PGS 
Codec ID/Info : The same subtitle format used on BDs/HD-DVDs 
Language : English 

Text #3 
ID : 5 
Format : PGS 
Codec ID : S_HDMV/PGS 
Codec ID/Info : The same subtitle format used on BDs/HD-DVDs 
Language : French 

Text #4 
ID : 6 
Format : PGS 
Codec ID : S_HDMV/PGS 
Codec ID/Info : The same subtitle format used on BDs/HD-DVDs 
Language : Spanish 

Menu & 62 Chapters


See all 20 full size 1920x800 PNG files at the link below
 
http://s1015.photobucket.com/albums/af279/tequila-bob/Wyatt%20Earp%201994/


 
http://www.phyrefile.com/image/view/Q4rXUaHgd7mtSTan 
http://www.phyrefile.com/image/view/nwahquV9GFdkf0Ae 
http://www.phyrefile.com/image/view/w9rrAAiJoMeWJCc2 
http://www.phyrefile.com/image/view/Z6qQVch5Qj1eIaYs 
http://www.phyrefile.com/image/view/C8B2WsopGLDvybuk 
http://www.phyrefile.com/image/view/iPzS5kQas0vHPMit 
http://www.phyrefile.com/image/view/S7fwhWOqtbBkuFoi 
http://www.phyrefile.com/image/view/8DjknFB64Sed7PFL 
http://www.phyrefile.com/image/view/Lme4kVTOUyvz5WnG 
http://www.phyrefile.com/image/view/QmNji324zNBNw0Kt 
http://www.phyrefile.com/image/view/6i1dx011M5yiC9G8 
http://www.phyrefile.com/image/view/9FQkoFR9aEyesetR 
http://www.phyrefile.com/image/view/IfCxar8ZHnqlTS2Y 
http://www.phyrefile.com/image/view/Yst7ehLQfl6Yyf6J 
http://www.phyrefile.com/image/view/TAnkv5XoDbwQ6Cty 
http://www.phyrefile.com/image/view/b3VchZcB3zUlVuhz 
http://www.phyrefile.com/image/view/mUo6cku3W4PrwBtN 
http://www.phyrefile.com/image/view/B77O4YxrJDxSN6Kq 
http://www.phyrefile.com/image/view/BysEgIxS9Hq85AC6 
http://www.phyrefile.com/image/view/RUFjugm32aWCUAt1